<svg xmlns="http://www.w3.org/2000/svg" width="23" height="15" viewBox="0 0 23 15">
  <path id="Subtraction_97" data-name="Subtraction 97" d="M16,15H7A7.008,7.008,0,0,1,0,8V7A7.008,7.008,0,0,1,7,0h9a7.008,7.008,0,0,1,7,7V8A7.008,7.008,0,0,1,16,15ZM8.108,3.2A4.231,4.231,0,0,0,3.962,7.5a4.231,4.231,0,0,0,4.146,4.3h7.161V10.238H8.108A2.692,2.692,0,0,1,5.47,7.5,2.692,2.692,0,0,1,8.108,4.763h7.915a1.565,1.565,0,0,1,0,3.128H9.548c-.214,0-.311-.2-.311-.391s.1-.391.311-.391h5.721V5.545H9.616a1.957,1.957,0,0,0,0,3.911h6.407a3.077,3.077,0,0,0,3.015-3.128A3.077,3.077,0,0,0,16.023,3.2Z" fill="#115a9c"/>
</svg>
