<svg xmlns="http://www.w3.org/2000/svg" width="25.946" height="26.74" viewBox="0 0 25.946 26.74">
  <path id="Union_138" data-name="Union 138" d="M21.856,24.661H15.793a4,4,0,0,1-4-4v-1.33a4,4,0,0,1,4-4h6.152a4,4,0,0,1,4,4v1.33a4,4,0,0,1-1.557,3.168l.122,2.911ZM1.047,17.3,1.3,11.167A7.077,7.077,0,0,1,7.076,0h7.077a7.076,7.076,0,0,1,0,14.153H7.076a7.1,7.1,0,0,1-1.767-.222L1.049,17.3l0,0ZM5.307,8.256a.59.59,0,0,0,.589.59h8.845a.59.59,0,0,0,0-1.179H5.9A.59.59,0,0,0,5.307,8.256Zm0-2.948A.59.59,0,0,0,5.9,5.9h8.845a.589.589,0,0,0,0-1.179H5.9A.59.59,0,0,0,5.307,5.307Z" fill="#115a9c"/>
</svg>
